<svg width="12" height="12" viewBox="0 0 12 12" fill="none" xmlns="http://www.w3.org/2000/svg">
<path d="M5.31132 0.322142C5.38091 0.407188 5.4219 0.509874 5.42902 0.61701C5.43613 0.724145 5.40905 0.830837 5.35125 0.923377C4.8977 1.65265 4.64654 2.47765 4.62091 3.32231C4.52972 6.13198 6.88963 8.47708 9.88913 8.56331C10.2812 8.57411 10.6618 8.54775 11.0309 8.48423C11.1439 8.46486 11.2604 8.4771 11.366 8.51942C11.4716 8.56174 11.5617 8.63229 11.6251 8.72232C11.6923 8.81605 11.7245 8.92812 11.7167 9.04094C11.7089 9.15376 11.6614 9.26093 11.5819 9.34564C10.9777 10.0021 10.2255 10.5233 9.38006 10.8714C8.53465 11.2196 7.61737 11.3858 6.69506 11.3579C3.27237 11.2595 0.584287 8.58466 0.688066 5.38719C0.766172 2.98069 2.40271 0.961706 4.66587 0.151118C4.7786 0.109806 4.90255 0.104151 5.019 0.135005C5.13544 0.16586 5.23805 0.231548 5.31132 0.322142ZM4.44001 1.01958C3.56667 1.42874 2.82742 2.05292 2.30079 2.82579C1.77416 3.59867 1.47983 4.49138 1.44908 5.40906C1.35791 8.21804 3.71856 10.5632 6.71806 10.6494C7.43628 10.671 8.15194 10.5585 8.82367 10.3183C9.49539 10.078 10.1099 9.71488 10.6315 9.24978C10.3801 9.27193 10.125 9.27928 9.86613 9.27184C6.44344 9.17344 3.7561 6.49861 3.85988 3.30113C3.88635 2.48569 4.09121 1.71455 4.44001 1.01958Z" fill="black"/>
<path d="M8.01523 2.3317C8.02686 2.30174 8.04822 2.276 8.07628 2.25812C8.10434 2.24025 8.13768 2.23115 8.17155 2.23213C8.20542 2.2331 8.2381 2.2441 8.26495 2.26355C8.2918 2.283 8.31145 2.30992 8.32112 2.34049L8.58209 3.1607C8.69879 3.52634 8.99101 3.8187 9.37168 3.95064L10.2256 4.24586C10.2575 4.2568 10.2848 4.27691 10.3038 4.30332C10.3228 4.32973 10.3325 4.3611 10.3314 4.39298C10.3304 4.42485 10.3187 4.45561 10.298 4.48088C10.2774 4.50615 10.2488 4.52465 10.2163 4.53374L9.34478 4.77936C9.15307 4.83318 8.97736 4.92839 8.83164 5.0574C8.68592 5.18641 8.57422 5.34566 8.50544 5.52247L8.19176 6.32616C8.18013 6.35611 8.15876 6.38185 8.1307 6.39973C8.10264 6.4176 8.06931 6.4267 8.03544 6.42573C8.00157 6.42475 7.96889 6.41376 7.94203 6.3943C7.91518 6.37485 7.89553 6.34793 7.88587 6.31736L7.62489 5.49716C7.5677 5.31673 7.46654 5.15136 7.32946 5.01422C7.19238 4.87708 7.02317 4.77195 6.8353 4.70721L5.98135 4.412C5.94952 4.40105 5.92217 4.38095 5.90318 4.35453C5.88419 4.32812 5.87452 4.29675 5.87556 4.26488C5.87659 4.233 5.88827 4.20224 5.90894 4.17697C5.92961 4.1517 5.95822 4.13321 5.9907 4.12411L6.8622 3.8785C7.05391 3.82467 7.22962 3.72946 7.37534 3.60045C7.52106 3.47144 7.63276 3.31219 7.70155 3.13538L8.01523 2.3317ZM10.363 0.266712C10.3709 0.247027 10.3852 0.23017 10.4038 0.218483C10.4225 0.206797 10.4445 0.200863 10.4669 0.201507C10.4893 0.20215 10.5109 0.209338 10.5287 0.222073C10.5465 0.234807 10.5597 0.252454 10.5664 0.272561L10.7404 0.8189C10.8179 1.06312 11.013 1.25827 11.2673 1.34601L11.8361 1.54281C11.857 1.55031 11.8749 1.56376 11.8873 1.58129C11.8997 1.59882 11.906 1.61956 11.9053 1.64062C11.9047 1.66167 11.897 1.68201 11.8835 1.69879C11.87 1.71557 11.8512 1.72797 11.8298 1.73426L11.2493 1.89802C11.1216 1.93421 11.0045 1.99784 10.9073 2.08389C10.8101 2.16994 10.7354 2.27606 10.6893 2.39388L10.4802 2.92921C10.4722 2.94889 10.4579 2.96575 10.4393 2.97744C10.4206 2.98912 10.3986 2.99506 10.3762 2.99441C10.3539 2.99377 10.3323 2.98658 10.3144 2.97385C10.2966 2.96111 10.2834 2.94347 10.2767 2.92336L10.1027 2.37702C10.0643 2.25676 9.99667 2.14656 9.90524 2.05508C9.81381 1.96361 9.70105 1.89338 9.57586 1.84991L9.00705 1.65311C8.98614 1.64561 8.96822 1.63216 8.95581 1.61463C8.94339 1.5971 8.93709 1.57636 8.93777 1.5553C8.93845 1.53425 8.94609 1.51391 8.95962 1.49713C8.97315 1.48034 8.9919 1.46795 9.01327 1.46166L9.59377 1.2979C9.85327 1.22493 10.0606 1.04135 10.1538 0.802038L10.363 0.266712Z" fill="black"/>
</svg>
